<svg version="1.1" id="Layer_1" xmlns="http://www.w3.org/2000/svg" xmlns:xlink="http://www.w3.org/1999/xlink" x="0px" y="0px"
	 width="100%" viewBox="0 0 791 574" enable-background="new 0 0 791 574" xml:space="preserve">
<path fill="#000000" opacity="1.000000" stroke="none" 
	d="
M582.000000,575.000000 
	C388.367096,575.000000 194.734177,575.000000 1.050629,575.000000 
	C1.050629,383.733765 1.050629,192.467545 1.050629,1.100649 
	C264.553589,1.100649 528.107178,1.100649 792.000000,1.100649 
	C792.000000,160.358994 792.000000,319.718231 791.540649,479.534302 
	C786.658386,480.323486 782.231506,480.980042 777.813416,480.925751 
	C765.918274,480.779510 754.011902,480.594543 742.138123,479.926025 
	C730.360596,479.262878 718.475830,478.803314 706.894348,476.784424 
	C691.880310,474.167175 677.129822,470.050385 662.232300,466.729767 
	C660.977966,466.450226 659.091492,466.878754 658.141724,467.711639 
	C652.599243,472.571777 647.443481,477.883209 641.798767,482.614716 
	C620.125488,500.781738 595.936340,514.530212 568.580750,521.987488 
	C552.757080,526.301147 536.716553,530.125366 520.543213,532.749390 
	C508.604248,534.686279 496.287109,534.921143 484.149048,534.805298 
	C474.247833,534.710693 464.359436,533.001038 454.472412,531.941528 
	C452.614899,531.742493 450.790741,531.232300 447.552399,530.586914 
	C448.884430,531.773254 448.977478,531.896545 449.101257,531.960693 
	C459.684448,537.445557 469.971405,543.639771 480.931580,548.224609 
	C494.430267,553.871399 508.296539,558.848938 522.354797,562.897278 
	C541.208679,568.326538 560.484253,572.079102 580.184387,573.109375 
	C580.820801,573.142700 581.396179,574.343445 582.000000,575.000000 
M112.388214,379.911011 
	C66.684814,400.677643 30.035564,431.959381 2.546088,474.005280 
	C4.119116,474.212769 5.260647,473.825043 6.337245,473.303345 
	C16.777815,468.243958 27.139559,463.016388 37.653622,458.115326 
	C64.028877,445.820679 91.045616,435.057465 119.425789,428.500977 
	C137.233688,424.386932 155.363876,420.972260 173.537720,419.340973 
	C190.424698,417.825195 207.507523,418.756897 224.453064,421.798950 
	C242.916901,425.113617 260.631317,430.381104 277.588745,438.274017 
	C297.771240,447.668060 315.636871,460.595428 332.987915,474.395996 
	C354.411743,491.435852 378.209106,504.274017 403.989716,513.562500 
	C424.295197,520.878418 445.216888,525.636963 466.644745,526.747925 
	C485.595490,527.730469 504.752869,528.213745 523.538940,524.010803 
	C538.178650,520.735474 553.048401,518.122986 567.310242,513.615723 
	C585.546570,507.852448 602.847778,499.581848 619.164246,489.436127 
	C633.117676,480.759827 646.439941,471.231323 656.934265,458.448547 
	C667.422546,445.673187 674.247559,430.737457 679.916809,415.373138 
	C685.046631,401.470703 688.936829,387.107422 694.161926,373.244446 
	C699.441101,359.237793 708.711609,348.969879 724.250183,345.865570 
	C726.450378,345.425964 728.544189,344.453857 731.602844,343.418213 
	C717.261536,332.129272 708.278320,318.105255 701.274963,302.635834 
	C698.990112,297.588806 697.088806,292.243439 694.030945,287.694000 
	C684.182983,273.042542 670.951599,262.420013 654.347168,256.102600 
	C638.543762,250.089981 622.143860,248.877762 605.860413,252.244507 
	C588.249451,255.885712 573.445374,265.419586 559.934387,277.314911 
	C549.429993,286.563202 538.474854,295.460480 526.872375,303.251434 
	C516.998962,309.881378 505.659637,313.764099 493.295654,312.882874 
	C446.128845,214.825668 418.068817,112.074440 412.794342,1.593770 
	C408.963806,4.262232 405.753723,5.916921 403.272797,8.323314 
	C389.531799,21.651447 379.997070,37.840260 374.156067,55.829327 
	C368.587616,72.978981 364.532318,90.626389 360.022461,108.109314 
	C358.712036,113.189293 358.125519,118.456001 357.207153,123.637108 
	C356.682190,123.696159 356.157227,123.755211 355.632263,123.814262 
	C348.417603,100.077965 341.202911,76.341667 333.851959,52.156963 
	C333.318329,52.878056 332.701111,53.485481 332.349945,54.220074 
	C325.595093,68.350868 317.673767,82.069389 312.439178,96.745415 
	C305.622894,115.855850 299.842560,135.496735 295.664551,155.340561 
	C291.728027,174.037384 289.312103,193.231857 288.273804,212.318710 
	C286.811310,239.202789 288.690918,266.016479 293.809631,292.634399 
	C298.207336,315.502869 304.920013,337.509735 313.944214,358.903534 
	C324.047699,382.855957 337.561157,404.782257 354.818451,424.106262 
	C372.242462,443.616852 392.250793,460.191895 415.854584,472.050934 
	C419.009216,473.635864 421.709869,476.124298 424.620728,478.194336 
	C424.480011,479.032959 424.339294,479.871582 424.198578,480.710205 
	C421.452148,481.297913 418.165924,483.165222 416.044891,482.270447 
	C399.371277,475.236328 384.145538,465.620148 370.973907,453.244293 
	C362.079437,444.887115 354.012787,435.602234 345.997711,426.366272 
	C333.215332,411.636932 322.808044,395.183075 314.167542,377.799622 
	C306.415192,362.203064 300.074188,345.906647 292.987457,329.973724 
	C292.519928,328.922546 290.895081,327.532349 289.993927,327.655579 
	C275.795349,329.596985 262.044159,333.630554 247.340073,333.465332 
	C236.857346,333.347565 226.380188,333.321747 216.199966,331.451416 
	C190.940491,326.810760 168.920273,314.942474 149.778458,298.088989 
	C136.529373,286.423828 125.102112,272.993927 115.984566,257.746033 
	C112.031868,251.135635 108.042740,244.547012 103.884384,237.639954 
	C97.677933,256.616791 97.911438,267.708160 100.188576,280.733490 
	C104.558121,305.727417 116.765381,326.869354 133.837555,345.417725 
	C140.011032,352.125031 145.782974,359.201904 150.804306,365.026825 
	C139.890228,369.200226 126.457916,374.336578 112.388214,379.911011 
z"/>
<path fill="#EC2327" opacity="1.000000" stroke="none" 
	d="
M582.467590,575.000000 
	C581.396179,574.343445 580.820801,573.142700 580.184387,573.109375 
	C560.484253,572.079102 541.208679,568.326538 522.354797,562.897278 
	C508.296539,558.848938 494.430267,553.871399 480.931580,548.224609 
	C469.971405,543.639771 459.684448,537.445557 449.101257,531.960693 
	C448.977478,531.896545 448.884430,531.773254 447.552399,530.586914 
	C450.790741,531.232300 452.614899,531.742493 454.472412,531.941528 
	C464.359436,533.001038 474.247833,534.710693 484.149048,534.805298 
	C496.287109,534.921143 508.604248,534.686279 520.543213,532.749390 
	C536.716553,530.125366 552.757080,526.301147 568.580750,521.987488 
	C595.936340,514.530212 620.125488,500.781738 641.798767,482.614716 
	C647.443481,477.883209 652.599243,472.571777 658.141724,467.711639 
	C659.091492,466.878754 660.977966,466.450226 662.232300,466.729767 
	C677.129822,470.050385 691.880310,474.167175 706.894348,476.784424 
	C718.475830,478.803314 730.360596,479.262878 742.138123,479.926025 
	C754.011902,480.594543 765.918274,480.779510 777.813416,480.925751 
	C782.231506,480.980042 786.658386,480.323486 791.540649,479.995544 
	C792.000000,480.444458 792.000000,480.888885 791.719421,481.361023 
	C783.405579,486.651367 775.414062,491.979095 767.330811,497.164001 
	C746.943176,510.241364 725.667664,521.603333 702.556213,529.089111 
	C689.927368,533.179626 677.057373,536.525330 664.091064,540.266052 
	C664.118958,540.439087 663.990601,541.421814 664.359619,541.672607 
	C675.884338,549.504517 687.457458,557.265015 698.959290,564.993469 
	C698.221924,565.201111 696.809937,565.776733 695.345764,565.983643 
	C678.506653,568.363220 661.656738,570.666870 644.824951,573.096619 
	C644.139343,573.195618 643.604858,574.341736 643.000000,575.000000 
	C637.311951,575.000000 631.623962,575.000000 625.238770,574.632446 
	C618.820007,574.177856 613.096802,573.972656 607.377686,574.054382 
	C604.581177,574.094299 601.792297,574.667969 599.000000,575.000000 
	C593.645081,575.000000 588.290100,575.000000 582.467590,575.000000 
z"/>
<path fill="#000000" opacity="1.000000" stroke="none" 
	d="
M643.468628,575.000000 
	C643.604858,574.341736 644.139343,573.195618 644.824951,573.096619 
	C661.656738,570.666870 678.506653,568.363220 695.345764,565.983643 
	C696.809937,565.776733 698.221924,565.201111 698.959290,564.993469 
	C687.457458,557.265015 675.884338,549.504517 664.359619,541.672607 
	C663.990601,541.421814 664.118958,540.439087 664.091064,540.266052 
	C677.057373,536.525330 689.927368,533.179626 702.556213,529.089111 
	C725.667664,521.603333 746.943176,510.241364 767.330811,497.164001 
	C775.414062,491.979095 783.405579,486.651367 791.719421,481.694336 
	C792.000000,512.943848 792.000000,543.887756 792.000000,575.000000 
	C742.645874,575.000000 693.291626,575.000000 643.468628,575.000000 
z"/>
<path fill="#FBCAB6" opacity="1.000000" stroke="none" 
	d="
M599.468628,575.000000 
	C601.792297,574.667969 604.581177,574.094299 607.377686,574.054382 
	C613.096802,573.972656 618.820007,574.177856 624.770752,574.632446 
	C616.645752,575.000000 608.291504,575.000000 599.468628,575.000000 
z"/>
<path fill="#EC2227" opacity="1.000000" stroke="none" 
	d="
M112.706909,379.691956 
	C126.457916,374.336578 139.890228,369.200226 150.804306,365.026825 
	C145.782974,359.201904 140.011032,352.125031 133.837555,345.417725 
	C116.765381,326.869354 104.558121,305.727417 100.188576,280.733490 
	C97.911438,267.708160 97.677933,256.616791 103.884384,237.639954 
	C108.042740,244.547012 112.031868,251.135635 115.984566,257.746033 
	C125.102112,272.993927 136.529373,286.423828 149.778458,298.088989 
	C168.920273,314.942474 190.940491,326.810760 216.199966,331.451416 
	C226.380188,333.321747 236.857346,333.347565 247.340073,333.465332 
	C262.044159,333.630554 275.795349,329.596985 289.993927,327.655579 
	C290.895081,327.532349 292.519928,328.922546 292.987457,329.973724 
	C300.074188,345.906647 306.415192,362.203064 314.167542,377.799622 
	C322.808044,395.183075 333.215332,411.636932 345.997711,426.366272 
	C354.012787,435.602234 362.079437,444.887115 370.973907,453.244293 
	C384.145538,465.620148 399.371277,475.236328 416.044891,482.270447 
	C418.165924,483.165222 421.452148,481.297913 424.198578,480.710205 
	C424.339294,479.871582 424.480011,479.032959 424.620728,478.194336 
	C421.709869,476.124298 419.009216,473.635864 415.854584,472.050934 
	C392.250793,460.191895 372.242462,443.616852 354.818451,424.106262 
	C337.561157,404.782257 324.047699,382.855957 313.944214,358.903534 
	C304.920013,337.509735 298.207336,315.502869 293.809631,292.634399 
	C288.690918,266.016479 286.811310,239.202789 288.273804,212.318710 
	C289.312103,193.231857 291.728027,174.037384 295.664551,155.340561 
	C299.842560,135.496735 305.622894,115.855850 312.439178,96.745415 
	C317.673767,82.069389 325.595093,68.350868 332.349945,54.220074 
	C332.701111,53.485481 333.318329,52.878056 333.851959,52.156963 
	C341.202911,76.341667 348.417603,100.077965 355.632263,123.814262 
	C356.157227,123.755211 356.682190,123.696159 357.207153,123.637108 
	C358.125519,118.456001 358.712036,113.189293 360.022461,108.109314 
	C364.532318,90.626389 368.587616,72.978981 374.156067,55.829327 
	C379.997070,37.840260 389.531799,21.651447 403.272797,8.323314 
	C405.753723,5.916921 408.963806,4.262232 412.794342,1.593770 
	C418.068817,112.074440 446.128845,214.825668 493.295654,312.882874 
	C505.659637,313.764099 516.998962,309.881378 526.872375,303.251434 
	C538.474854,295.460480 549.429993,286.563202 559.934387,277.314911 
	C573.445374,265.419586 588.249451,255.885712 605.860413,252.244507 
	C622.143860,248.877762 638.543762,250.089981 654.347168,256.102600 
	C670.951599,262.420013 684.182983,273.042542 694.030945,287.694000 
	C697.088806,292.243439 698.990112,297.588806 701.274963,302.635834 
	C708.278320,318.105255 717.261536,332.129272 731.602844,343.418213 
	C728.544189,344.453857 726.450378,345.425964 724.250183,345.865570 
	C708.711609,348.969879 699.441101,359.237793 694.161926,373.244446 
	C688.936829,387.107422 685.046631,401.470703 679.916809,415.373138 
	C674.247559,430.737457 667.422546,445.673187 656.934265,458.448547 
	C646.439941,471.231323 633.117676,480.759827 619.164246,489.436127 
	C602.847778,499.581848 585.546570,507.852448 567.310242,513.615723 
	C553.048401,518.122986 538.178650,520.735474 523.538940,524.010803 
	C504.752869,528.213745 485.595490,527.730469 466.644745,526.747925 
	C445.216888,525.636963 424.295197,520.878418 403.989716,513.562500 
	C378.209106,504.274017 354.411743,491.435852 332.987915,474.395996 
	C315.636871,460.595428 297.771240,447.668060 277.588745,438.274017 
	C260.631317,430.381104 242.916901,425.113617 224.453064,421.798950 
	C207.507523,418.756897 190.424698,417.825195 173.537720,419.340973 
	C155.363876,420.972260 137.233688,424.386932 119.425789,428.500977 
	C91.045616,435.057465 64.028877,445.820679 37.653622,458.115326 
	C27.139559,463.016388 16.777815,468.243958 6.337245,473.303345 
	C5.260647,473.825043 4.119116,474.212769 2.546088,474.005280 
	C30.035564,431.959381 66.684814,400.677643 112.706909,379.691956 
M638.375488,305.389618 
	C633.919128,298.874542 627.634399,296.584412 621.325256,299.176453 
	C615.895874,301.407043 612.436218,307.558441 613.383728,313.296967 
	C614.681152,321.154785 621.852783,326.076996 629.408386,324.295441 
	C637.654602,322.351044 641.333130,315.172089 638.375488,305.389618 
z"/>
<path fill="#FFFCFA" opacity="1.000000" stroke="none" 
	d="
M638.560181,305.732086 
	C641.333130,315.172089 637.654602,322.351044 629.408386,324.295441 
	C621.852783,326.076996 614.681152,321.154785 613.383728,313.296967 
	C612.436218,307.558441 615.895874,301.407043 621.325256,299.176453 
	C627.634399,296.584412 633.919128,298.874542 638.560181,305.732086 
z"/>
</svg>